<svg width="247" height="104" viewBox="0 0 247 104" fill="none" xmlns="http://www.w3.org/2000/svg">
<g clip-path="url(#clip0_921_9675)">
<path d="M0.30249 0.907593H22.0919V101.231H0.30249V0.907593Z" fill="#E91E63"/>
<path d="M102.554 32.0937V101.178H80.7615V91.4287C79.8676 93.1066 78.7136 94.6304 77.3428 95.9426C75.8773 97.3593 74.2239 98.5651 72.4298 99.5255C70.5057 100.555 68.4756 101.37 66.3757 101.956C64.2447 102.568 62.0398 102.881 59.8235 102.887C55.1433 102.94 50.5057 101.988 46.221 100.092C42.2071 98.314 38.5964 95.7298 35.6101 92.498C32.5921 89.174 30.2671 85.2748 28.7726 81.031C25.5445 71.7028 25.5445 61.5506 28.7726 52.2224C30.2671 47.9786 32.5921 44.0794 35.6101 40.7554C38.5964 37.5236 42.2071 34.9394 46.221 33.1614C50.5071 31.2676 55.1457 30.3168 59.8265 30.3729C62.0428 30.378 64.2477 30.6913 66.3787 31.3039C68.4885 31.8956 70.5209 32.7379 72.4328 33.813C74.2316 34.8237 75.8846 36.0771 77.3458 37.5386C78.681 38.856 79.8312 40.3506 80.7646 41.9811V32.0937H102.554ZM64.3818 84.2646C66.6918 84.2999 68.98 83.8103 71.0759 82.8323C73.0176 81.9179 74.7614 80.6277 76.2078 79.0353C77.6663 77.4025 78.8024 75.5051 79.5556 73.4446C80.3659 71.2682 80.7751 68.9614 80.7631 66.6373C80.7961 62.1052 79.174 57.7187 76.2047 54.3107C74.7739 52.6826 73.0276 51.3657 71.0729 50.4408C68.966 49.4965 66.6853 49.0085 64.3788 49.0085C62.0723 49.0085 59.7916 49.4965 57.6847 50.4408C55.7303 51.3662 53.9841 52.683 52.5528 54.3107C49.5849 57.7194 47.9634 62.1056 47.996 66.6373C47.9825 68.9615 48.3918 71.2686 49.2035 73.4446C49.9561 75.505 51.0918 77.4024 52.5498 79.0353C53.9966 80.6272 55.7403 81.9174 57.6817 82.8323C59.7793 83.8115 62.0697 84.3011 64.3818 84.2646Z" fill="#E91E63"/>
<path d="M129.036 101.231H107.242V0.907593H129.036V42.0353C129.969 40.4048 131.12 38.9102 132.455 37.5928C133.931 36.1191 135.608 34.8646 137.436 33.8671C139.355 32.808 141.386 31.9665 143.49 31.3581C145.643 30.7356 147.873 30.4221 150.113 30.4271C154.793 30.3735 159.431 31.3263 163.716 33.2217C167.729 35 171.34 37.5841 174.326 40.8157C177.344 44.1403 179.668 48.0393 181.164 52.2826C184.392 61.6108 184.392 71.7631 181.164 81.0913C179.668 85.3346 177.344 89.2336 174.326 92.5583C171.34 95.7898 167.729 98.3739 163.716 100.152C159.431 102.048 154.793 103 150.113 102.947C147.873 102.952 145.643 102.638 143.49 102.016C141.395 101.414 139.367 100.599 137.436 99.5858C135.613 98.6382 133.936 97.4316 132.455 96.0029C131.084 94.6907 129.93 93.1669 129.036 91.489V101.231ZM145.559 84.3172C147.823 84.3425 150.062 83.8529 152.111 82.885C154.053 81.9706 155.797 80.6804 157.243 79.088C158.702 77.4551 159.838 75.5578 160.591 73.4973C161.401 71.3209 161.811 69.0141 161.799 66.69C161.832 62.1579 160.21 57.7714 157.24 54.3634C155.809 52.7352 154.063 51.4183 152.108 50.4935C150.06 49.5248 147.822 49.0327 145.559 49.0537C143.227 49.0247 140.917 49.5137 138.794 50.4859C136.812 51.397 135.041 52.7152 133.596 54.3558C130.627 57.7638 129.005 62.1503 129.038 66.6824C129.025 69.0066 129.434 71.3135 130.245 73.4897C130.997 75.5508 132.133 77.4483 133.593 79.0804C135.054 80.685 136.822 81.9764 138.791 82.8774C140.914 83.8541 143.225 84.3458 145.559 84.3172Z" fill="#E91E63"/>
<path d="M224.533 60.5256C227.57 61.3853 230.418 62.3168 233.079 63.3202C235.566 64.2315 237.915 65.4859 240.058 67.0474C242.034 68.5095 243.664 70.3939 244.83 72.5652C246.102 75.1435 246.714 78.0008 246.611 80.8776C246.728 84.4958 245.892 88.081 244.188 91.2692C242.569 94.094 240.266 96.4608 237.494 98.1494C234.444 99.9955 231.093 101.281 227.595 101.946C223.631 102.73 219.599 103.114 215.56 103.092C205.778 103.092 198.063 100.942 192.413 96.6427C186.762 92.343 185.079 86.1797 185.079 78.1529H205.305C205.305 81.7858 206.326 84.3896 208.367 85.964C210.665 87.621 213.448 88.4537 216.272 88.3288C218.528 88.4264 220.768 87.9067 222.753 86.8252C223.581 86.3115 224.251 85.578 224.691 84.7054C225.131 83.8329 225.322 82.8552 225.245 81.88C225.302 80.7088 224.922 79.5586 224.178 78.6556C223.244 77.6846 222.131 76.9057 220.901 76.3622C219.058 75.5041 217.154 74.7852 215.205 74.2116C212.877 73.4947 210.099 72.6112 206.872 71.5612C204.024 70.7006 201.318 69.7691 198.753 68.7667C196.349 67.8502 194.075 66.6212 191.988 65.1109C190.044 63.683 188.459 61.8179 187.359 59.6645C186.133 57.0716 185.546 54.2198 185.648 51.3505C185.648 44.1848 188.378 38.8822 193.838 35.4426C199.298 32.003 206.681 30.2817 215.987 30.2787C220.397 30.2045 224.792 30.8088 229.02 32.0709C232.408 33.0697 235.558 34.7517 238.279 37.0146C240.648 39.0462 242.523 41.5959 243.762 44.4688C245.002 47.3648 245.633 50.4877 245.614 53.6409H224.106C224.257 51.2155 223.466 48.8257 221.899 46.9764C220.997 46.1306 219.929 45.4835 218.764 45.0763C217.598 44.6691 216.362 44.5109 215.133 44.6116C213.131 44.5624 211.156 45.0842 209.436 46.1167C208.649 46.5975 208.007 47.2855 207.58 48.1065C207.153 48.9274 206.957 49.8501 207.014 50.7749C206.974 51.9133 207.384 53.0211 208.153 53.8566C209.116 54.8077 210.253 55.5622 211.501 56.0786C213.285 56.8629 215.117 57.533 216.985 58.0849C219.168 58.7582 221.684 59.5718 224.533 60.5256Z" fill="#E91E63"/>
</g>
<defs>
<clipPath id="clip0_921_9675">
<rect width="246.319" height="102.185" fill="white" transform="translate(0.30249 0.907593)"/>
</clipPath>
</defs>
</svg>
