<svg width="132" height="20" viewBox="0 0 132 20" fill="none" xmlns="http://www.w3.org/2000/svg">
<path d="M12.2229 17.2928H5.47364L4.82048 19.6409H0.166748L6.61666 0.303867H11.0527L17.5298 19.6409H12.8761L12.2229 17.2928ZM11.2432 13.7845L8.84827 5.19337L6.45337 13.7845H11.2432Z" fill="white"/>
<path d="M18.5695 0.303867H22.9783V19.6409H18.5695V0.303867Z" fill="white"/>
<path d="M24.8793 19.6409C24.8793 17.3757 25.2512 15.5525 25.9951 14.1713C26.739 12.7716 27.9636 11.6206 29.6691 10.7182L32.6355 9.14365C33.9963 8.42542 34.6766 7.43094 34.6766 6.16022C34.6766 5.47882 34.468 4.93554 34.0507 4.53039C33.6515 4.10681 33.1163 3.89503 32.445 3.89503C31.5923 3.89503 30.93 4.18048 30.4583 4.75138C30.0047 5.30387 29.778 6.10497 29.778 7.1547H25.2875C25.2875 5.81031 25.5778 4.63168 26.1584 3.61878C26.7571 2.60589 27.5917 1.8232 28.6621 1.27072C29.7507 0.718231 31.0026 0.441988 32.4178 0.441988C34.5405 0.441988 36.2006 0.939226 37.3981 1.9337C38.5956 2.90976 39.1943 4.26335 39.1943 5.99447C39.1943 7.20994 38.8768 8.31492 38.2418 9.30939C37.6249 10.2855 36.7177 11.0866 35.5203 11.7127L32.7716 13.2044C31.9733 13.6464 31.4018 14.0608 31.057 14.4475C30.7305 14.8343 30.4765 15.3499 30.295 15.9945H39.031V19.6409H24.8793Z" fill="white"/>
<path d="M44.181 7.76243H40.262V4.25414C41.4595 4.25414 42.3848 4.13444 43.0379 3.89503C43.6911 3.65562 44.1356 3.2965 44.3715 2.81768C44.6255 2.33886 44.7525 1.68508 44.7525 0.856354H48.5626V19.6409H44.181V7.76243Z" fill="white"/>
<path d="M60.3685 20C59.1347 20 58.0461 19.8158 57.1027 19.4475C56.1774 19.0792 55.4517 18.5727 54.9255 17.9282C54.4175 17.2652 54.1635 16.5009 54.1635 15.6354H58.3001C58.3001 16.0958 58.4997 16.4733 58.8989 16.768C59.298 17.0442 59.8151 17.1823 60.4501 17.1823C60.9037 17.1823 61.2666 17.081 61.5387 16.8785C61.829 16.6575 61.9741 16.3536 61.9741 15.9669C61.9741 15.6538 61.8744 15.4052 61.6748 15.221C61.4752 15.0184 61.1033 14.8527 60.559 14.7238L57.8103 14.0331C56.758 13.7753 55.9415 13.3149 55.3609 12.6519C54.7985 11.9705 54.5173 11.1326 54.5173 10.1381C54.5173 8.88582 55.0253 7.88214 56.0413 7.12707C57.0755 6.35359 58.4362 5.96685 60.1235 5.96685C61.9741 5.96685 63.4075 6.32597 64.4235 7.0442C65.4576 7.74402 65.9747 8.75691 65.9747 10.0829H61.8653C61.8653 9.62247 61.702 9.27256 61.3754 9.03315C61.067 8.77532 60.6315 8.64641 60.0691 8.64641C59.6155 8.64641 59.2527 8.7477 58.9805 8.95028C58.7084 9.15285 58.5723 9.41068 58.5723 9.72376C58.5723 10.0368 58.6811 10.2947 58.8989 10.4972C59.1166 10.6998 59.4885 10.8656 60.0147 10.9945L62.7906 11.768C63.8429 12.0442 64.6593 12.5046 65.2399 13.1492C65.8205 13.7937 66.1108 14.6133 66.1108 15.6077C66.1108 16.9705 65.5937 18.0479 64.5596 18.8398C63.5254 19.6133 62.1284 20 60.3685 20Z" fill="#E91E63"/>
<path d="M75.0379 16.3536C75.6185 16.3536 76.0993 16.326 76.4803 16.2707V19.6409C75.682 19.7882 74.7567 19.8619 73.7044 19.8619C72.3799 19.8619 71.2732 19.5396 70.3841 18.895C69.4951 18.2505 69.0506 16.9429 69.0506 14.9724V9.66851H66.9823V6.32597H69.0506V2.37569H73.2145V6.32597H76.1809V9.66851H73.2145V14.0884C73.2145 14.9908 73.3687 15.5985 73.6771 15.9116C73.9856 16.2063 74.4392 16.3536 75.0379 16.3536Z" fill="#E91E63"/>
<path d="M83.0269 20C81.4666 20 80.2691 19.5304 79.4346 18.5912C78.6 17.6335 78.1827 16.2891 78.1827 14.558V6.32597H82.401V13.6188C82.401 14.558 82.5733 15.267 82.9181 15.7459C83.2628 16.2063 83.8161 16.4365 84.5782 16.4365C85.4309 16.4365 86.0659 16.1786 86.4832 15.663C86.9005 15.1473 87.1091 14.4199 87.1091 13.4807V6.32597H91.2458V19.6409H87.1091V17.7348C86.7281 18.453 86.1929 19.0147 85.5035 19.4199C84.8322 19.8066 84.0067 20 83.0269 20Z" fill="#E91E63"/>
<path d="M107.672 0.303867V19.6409H103.535V17.7624C103.172 18.4254 102.61 18.9687 101.848 19.3923C101.104 19.7974 100.278 20 99.3711 20C98.1011 20 96.9944 19.6961 96.0509 19.0884C95.1256 18.4807 94.418 17.6519 93.9282 16.6022C93.4383 15.5341 93.1934 14.3278 93.1934 12.9834C93.1934 11.6575 93.4474 10.4604 93.9554 9.39226C94.4634 8.32412 95.1891 7.48619 96.1326 6.87845C97.0942 6.27072 98.1918 5.96685 99.4256 5.96685C100.351 5.96685 101.176 6.16943 101.902 6.57459C102.628 6.97974 103.172 7.53223 103.535 8.23205V0.303867H107.672ZM100.569 16.4917C101.566 16.4917 102.338 16.1602 102.882 15.4972C103.426 14.8343 103.698 13.9963 103.698 12.9834C103.698 11.989 103.426 11.1602 102.882 10.4972C102.338 9.83425 101.566 9.50276 100.569 9.50276C99.6251 9.50276 98.8631 9.82505 98.2825 10.4696C97.7201 11.1142 97.4389 11.9521 97.4389 12.9834C97.4389 14.0147 97.7201 14.8619 98.2825 15.5249C98.8631 16.1694 99.6251 16.4917 100.569 16.4917Z" fill="#E91E63"/>
<path d="M112.653 5.16575C111.909 5.16575 111.292 4.91713 110.802 4.41989C110.33 3.92265 110.094 3.31492 110.094 2.59668C110.094 1.86004 110.33 1.24309 110.802 0.745857C111.292 0.248619 111.909 0 112.653 0C113.396 0 114.013 0.257827 114.503 0.77348C114.993 1.27072 115.238 1.87845 115.238 2.59668C115.238 3.31492 114.993 3.92265 114.503 4.41989C114.013 4.91713 113.396 5.16575 112.653 5.16575ZM110.584 6.32597H114.721V19.6409H110.584V6.32597Z" fill="#E91E63"/>
<path d="M123.9 20C122.431 20 121.143 19.7053 120.036 19.116C118.929 18.5083 118.076 17.6703 117.478 16.6022C116.897 15.5341 116.607 14.3278 116.607 12.9834C116.607 11.639 116.897 10.4328 117.478 9.36464C118.076 8.2965 118.929 7.46777 120.036 6.87845C121.143 6.27072 122.431 5.96685 123.9 5.96685C125.37 5.96685 126.649 6.27072 127.738 6.87845C128.844 7.46777 129.688 8.2965 130.269 9.36464C130.867 10.4328 131.167 11.639 131.167 12.9834C131.167 14.3278 130.867 15.5341 130.269 16.6022C129.688 17.6703 128.844 18.5083 127.738 19.116C126.649 19.7053 125.37 20 123.9 20ZM123.9 16.4365C124.862 16.4365 125.624 16.1234 126.186 15.4972C126.749 14.8527 127.03 14.0147 127.03 12.9834C127.03 11.9521 126.749 11.1234 126.186 10.4972C125.624 9.85267 124.862 9.53039 123.9 9.53039C122.921 9.53039 122.15 9.85267 121.587 10.4972C121.043 11.1234 120.771 11.9521 120.771 12.9834C120.771 14.0147 121.043 14.8527 121.587 15.4972C122.15 16.1234 122.921 16.4365 123.9 16.4365Z" fill="#E91E63"/>
</svg>
